<svg width="24" height="24" viewBox="0 0 24 24" fill="none" xmlns="http://www.w3.org/2000/svg">
<path d="M12 4C11.2494 3.99996 10.5262 4.28124 9.97286 4.78834C9.41955 5.29544 9.07642 5.99151 9.01118 6.7392C7.98128 7.28302 7.11932 8.09759 6.5182 9.09513C5.91709 10.0927 5.59961 11.2353 5.59998 12.4V13.6H18.4V12.4C18.4003 11.2353 18.0829 10.0927 17.4817 9.09513C16.8806 8.09759 16.0187 7.28302 14.9888 6.7392C14.9235 5.99151 14.5804 5.29544 14.0271 4.78834C13.4738 4.28124 12.7505 3.99996 12 4ZM12 6C11.4416 6 10.9008 6.072 10.384 6.2056C10.5322 5.90342 10.7622 5.64885 11.0479 5.47082C11.3335 5.29278 11.6634 5.19841 12 5.19841C12.3366 5.19841 12.6664 5.29278 12.9521 5.47082C13.2377 5.64885 13.4677 5.90342 13.616 6.2056C13.0882 6.06862 12.5452 5.99953 12 6ZM8.79998 10.7336C8.79998 10.2208 9.00369 9.72896 9.36631 9.36634C9.72893 9.00372 10.2208 8.8 10.7336 8.8H13.2664C13.7792 8.8 14.271 9.00372 14.6336 9.36634C14.9963 9.72896 15.2 10.2208 15.2 10.7336C15.2 11.432 14.6328 12 13.9336 12H10.0664C9.73051 12 9.40839 11.8666 9.1709 11.6291C8.9334 11.3916 8.79998 11.0695 8.79998 10.7336Z" fill="url(#paint0_radial_21_17)" style=""/>
<g clip-path="url(#paint1_diamond_21_17_clip_path)" data-figma-skip-parse="true"><g transform="matrix(-3.14649e-05 0.00483124 -0.0122971 -8.00889e-05 9.4258 15.1688)"><rect x="0" y="0" width="1171.78" height="797.782" fill="url(#paint1_diamond_21_17)" opacity="1" shape-rendering="crispEdges"/><rect x="0" y="0" width="1171.78" height="797.782" transform="scale(1 -1)" fill="url(#paint1_diamond_21_17)" opacity="1" shape-rendering="crispEdges"/><rect x="0" y="0" width="1171.78" height="797.782" transform="scale(-1 1)" fill="url(#paint1_diamond_21_17)" opacity="1" shape-rendering="crispEdges"/><rect x="0" y="0" width="1171.78" height="797.782" transform="scale(-1)" fill="url(#paint1_diamond_21_17)" opacity="1" shape-rendering="crispEdges"/></g></g><path d="M9.99998 14.9712H18.4V17.4C18.4 17.7414 18.3327 18.0795 18.2021 18.395C18.0714 18.7104 17.8799 18.997 17.6385 19.2385C17.397 19.4799 17.1104 19.6714 16.795 19.8021C16.4795 19.9327 16.1414 20 15.8 20H8.19998C7.85854 20 7.52045 19.9327 7.205 19.8021C6.88955 19.6714 6.60293 19.4799 6.3615 19.2385C6.12007 18.997 5.92855 18.7104 5.79789 18.395C5.66723 18.0795 5.59998 17.7414 5.59998 17.4V14.9712H8.79998V16.2C8.79998 16.3591 8.86319 16.5117 8.97571 16.6243C9.08823 16.7368 9.24085 16.8 9.39998 16.8C9.55911 16.8 9.71172 16.7368 9.82424 16.6243C9.93676 16.5117 9.99998 16.3591 9.99998 16.2V14.9712Z" data-figma-gradient-fill="{&#34;type&#34;:&#34;GRADIENT_DIAMOND&#34;,&#34;stops&#34;:[{&#34;color&#34;:{&#34;r&#34;:0.0,&#34;g&#34;:0.49434703588485718,&#34;b&#34;:0.80164390802383423,&#34;a&#34;:1.0},&#34;position&#34;:0.0},{&#34;color&#34;:{&#34;r&#34;:0.31536456942558289,&#34;g&#34;:0.73755639791488647,&#34;b&#34;:1.0,&#34;a&#34;:1.0},&#34;position&#34;:1.0}],&#34;stopsVar&#34;:[{&#34;color&#34;:{&#34;r&#34;:0.0,&#34;g&#34;:0.49434703588485718,&#34;b&#34;:0.80164390802383423,&#34;a&#34;:1.0},&#34;position&#34;:0.0},{&#34;color&#34;:{&#34;r&#34;:0.31536456942558289,&#34;g&#34;:0.73755639791488647,&#34;b&#34;:1.0,&#34;a&#34;:1.0},&#34;position&#34;:1.0}],&#34;transform&#34;:{&#34;m00&#34;:-0.062929853796958923,&#34;m01&#34;:-24.594284057617188,&#34;m02&#34;:21.754407882690430,&#34;m10&#34;:9.6624784469604492,&#34;m11&#34;:-0.16017778217792511,&#34;m12&#34;:10.417610168457031},&#34;opacity&#34;:1.0,&#34;blendMode&#34;:&#34;NORMAL&#34;,&#34;visible&#34;:true}" style=""/>
<path d="M10.2149 10.2149C10.3524 10.0773 10.539 10 10.7336 10H13.2664C13.461 10 13.6476 10.0773 13.7851 10.2149C13.9227 10.3524 14 10.539 14 10.7336C14 10.7512 13.993 10.7681 13.9806 10.7806C13.9681 10.793 13.9512 10.8 13.9336 10.8H10.0664C10.0296 10.8 10 10.7704 10 10.7336C10 10.539 10.0773 10.3524 10.2149 10.2149Z" fill="#9355FF" style="fill:#9355FF;fill:color(display-p3 0.5765 0.3333 1.0000);fill-opacity:1;"/>
<defs>
<clipPath id="paint1_diamond_21_17_clip_path"><path d="M9.99998 14.9712H18.4V17.4C18.4 17.7414 18.3327 18.0795 18.2021 18.395C18.0714 18.7104 17.8799 18.997 17.6385 19.2385C17.397 19.4799 17.1104 19.6714 16.795 19.8021C16.4795 19.9327 16.1414 20 15.8 20H8.19998C7.85854 20 7.52045 19.9327 7.205 19.8021C6.88955 19.6714 6.60293 19.4799 6.3615 19.2385C6.12007 18.997 5.92855 18.7104 5.79789 18.395C5.66723 18.0795 5.59998 17.7414 5.59998 17.4V14.9712H8.79998V16.2C8.79998 16.3591 8.86319 16.5117 8.97571 16.6243C9.08823 16.7368 9.24085 16.8 9.39998 16.8C9.55911 16.8 9.71172 16.7368 9.82424 16.6243C9.93676 16.5117 9.99998 16.3591 9.99998 16.2V14.9712Z"/></clipPath><radialGradient id="paint0_radial_21_17" cx="0" cy="0" r="1" gradientUnits="userSpaceOnUse" gradientTransform="translate(12 8.8) rotate(90) scale(4.8 6.4)">
<stop stop-color="#C19DFF" style="stop-color:#C19DFF;stop-color:color(display-p3 0.7578 0.6176 1.0000);stop-opacity:1;"/>
<stop offset="1" stop-color="#6912FF" style="stop-color:#6912FF;stop-color:color(display-p3 0.4107 0.0695 1.0000);stop-opacity:1;"/>
</radialGradient>
<linearGradient id="paint1_diamond_21_17" x1="0" y1="0" x2="500" y2="500" gradientUnits="userSpaceOnUse">
<stop stop-color="#007ECC" style="stop-color:#007ECC;stop-color:color(display-p3 0.0000 0.4943 0.8016);stop-opacity:1;"/>
<stop offset="1" stop-color="#50BCFF" style="stop-color:#50BCFF;stop-color:color(display-p3 0.3154 0.7376 1.0000);stop-opacity:1;"/>
</linearGradient>
</defs>
</svg>
